<svg width="80" height="80" viewBox="0 0 80 80" fill="none" xmlns="http://www.w3.org/2000/svg">
<path d="M0 39.8954C0 17.8618 17.9664 0 40 0V0C62.0336 0 80 17.8618 80 39.8954V39.8954C80 61.929 62.0336 79.7908 40 79.7908V79.7908C17.9664 79.7908 0 61.929 0 39.8954V39.8954Z" fill="#F5F5F5"/>
<g clip-path="url(#clip0_211_3893)">
<path d="M38.3333 35.0003C40.1716 35.0003 41.6666 36.4953 41.6666 38.3336C41.6666 40.172 40.1716 41.667 38.3333 41.667C36.495 41.667 35 40.172 35 38.3336C35 36.4953 36.495 35.0003 38.3333 35.0003ZM58.795 38.5703C56.8266 34.0603 54.97 29.8003 53 27.3653C49.8033 23.097 45.125 20.522 40 20.0703V31.8786C42.8733 32.6203 45 35.2336 45 38.3353C45 42.012 42.01 45.002 38.3333 45.002C34.6566 45.002 31.6666 42.012 31.6666 38.3353C31.6666 35.2336 33.7933 32.6203 36.6666 31.8786V20.0736C36.3633 20.1003 36.06 20.1353 35.755 20.177C27.4283 21.322 20.835 28.2436 20.0766 36.6386C19.635 41.5303 21.1133 46.292 24.2383 50.0486C24.73 50.637 25 51.3837 25 52.152V60.0003H46.6666V55.0003H50.4116C52.9116 55.0003 55.0416 53.132 55.3683 50.657L56.1166 45.0003H60V41.3136L58.795 38.5703Z" fill="#70D4FB"/>
</g>
<defs>
<clipPath id="clip0_211_3893">
<rect width="40" height="40" fill="white" transform="translate(20 20)"/>
</clipPath>
</defs>
</svg>
