<svg width="80" height="80" viewBox="0 0 80 80" fill="none" xmlns="http://www.w3.org/2000/svg">
<g filter="url(#filter0_b_211_3891)">
<path d="M0 40C0 17.9086 17.9086 0 40 0V0C62.0914 0 80 17.9086 80 40V40C80 62.0914 62.0914 80 40 80V80C17.9086 80 0 62.0914 0 40V40Z" fill="#F5F5F5"/>
</g>
<g clip-path="url(#clip0_211_3891)">
<path d="M50.967 24.6311L40.5254 21.1403C40.1835 21.0261 39.8139 21.0261 39.472 21.1403L29.0304 24.6311C27.3702 25.184 25.9261 26.2474 24.9031 27.6702C23.8802 29.093 23.3304 30.8029 23.332 32.5568V41.1075C23.332 53.7456 38.6654 60.7255 39.322 61.0163C39.5351 61.1111 39.7656 61.1602 39.9987 61.1602C40.2318 61.1602 40.4623 61.1111 40.6754 61.0163C41.332 60.7255 56.6654 53.7456 56.6654 41.1075V32.5568C56.667 30.8029 56.1172 29.093 55.0943 27.6702C54.0713 26.2474 52.6272 25.184 50.967 24.6311ZM47.862 37.2926L40.742 44.4312C40.4507 44.7253 40.1039 44.9584 39.722 45.1171C39.34 45.2757 38.9305 45.3567 38.517 45.3553H38.462C38.0402 45.3488 37.624 45.2566 37.2387 45.0843C36.8534 44.912 36.507 44.6631 36.2204 44.3527L32.377 40.3422C32.2106 40.1874 32.0774 40.0001 31.9858 39.7918C31.8941 39.5835 31.8459 39.3587 31.844 39.131C31.8421 38.9034 31.8867 38.6777 31.9749 38.468C32.0631 38.2582 32.1931 38.0687 32.357 37.9112C32.5209 37.7536 32.7151 37.6312 32.9278 37.5516C33.1405 37.472 33.3672 37.4369 33.594 37.4483C33.8208 37.4596 34.0428 37.5174 34.2466 37.6179C34.4503 37.7184 34.6314 37.8596 34.7787 38.0328L38.5187 41.943L45.4987 34.9247C45.813 34.6203 46.234 34.4519 46.671 34.4557C47.108 34.4595 47.5261 34.6352 47.8351 34.945C48.1441 35.2549 48.3194 35.674 48.3232 36.1121C48.327 36.5503 48.159 36.9724 47.8554 37.2875L47.862 37.2926Z" fill="#70D4FB"/>
</g>
<defs>
<filter id="filter0_b_211_3891" x="-5" y="-5" width="90" height="90" filterUnits="userSpaceOnUse" color-interpolation-filters="sRGB">
<feFlood flood-opacity="0" result="BackgroundImageFix"/>
<feGaussianBlur in="BackgroundImageFix" stdDeviation="2.5"/>
<feComposite in2="SourceAlpha" operator="in" result="effect1_backgroundBlur_211_3891"/>
<feBlend mode="normal" in="SourceGraphic" in2="effect1_backgroundBlur_211_3891" result="shape"/>
</filter>
<clipPath id="clip0_211_3891">
<rect width="40" height="40.1049" fill="white" transform="translate(20 21.0547)"/>
</clipPath>
</defs>
</svg>
