<svg width="80" height="80" viewBox="0 0 80 80" fill="none" xmlns="http://www.w3.org/2000/svg">
<path d="M0 39.8954C0 17.8618 17.9664 0 40 0V0C62.0336 0 80 17.8618 80 39.8954V39.8954C80 61.929 62.0336 79.7908 40 79.7908V79.7908C17.9664 79.7908 0 61.929 0 39.8954V39.8954Z" fill="#F5F5F5"/>
<g clip-path="url(#clip0_211_3892)">
<path d="M40 40C45.5233 40 50 35.5233 50 30C50 24.4767 45.5233 20 40 20C34.4767 20 30 24.4767 30 30C30 35.5233 34.4767 40 40 40ZM34.5367 26.7767C34.79 24.9767 36.3833 23.6667 38.2017 23.6667H38.6683V23C38.6683 22.2633 39.265 21.6667 40.0017 21.6667C40.7383 21.6667 41.335 22.2633 41.335 23V23.6667H42.01C43.195 23.6667 44.2567 24.2067 44.96 25.055C45.6567 25.895 45.065 27.165 43.9733 27.165C43.595 27.165 43.1233 26.9867 42.8667 26.7083C42.6533 26.4767 42.3467 26.3317 42.0083 26.3317H38.1633C37.7 26.3317 37.2767 26.6417 37.185 27.095C37.0783 27.625 37.4283 28.1233 37.9333 28.225L42.5867 29.1567C44.44 29.5267 45.735 31.2933 45.4617 33.2217C45.2067 35.0217 43.615 36.33 41.7967 36.33H41.33V36.9967C41.33 37.7333 40.7333 38.33 39.9967 38.33C39.26 38.33 38.6633 37.7333 38.6633 36.9967V36.33H37.945C36.76 36.33 35.6983 35.7883 34.995 34.9417C34.2983 34.1017 34.89 32.8317 35.9817 32.8317C36.36 32.8317 36.8317 33.01 37.0883 33.2883C37.3017 33.52 37.6083 33.665 37.9467 33.665H41.8367C42.3 33.665 42.7233 33.3533 42.8133 32.8983C42.9183 32.3683 42.57 31.8733 42.0617 31.77L37.41 30.8383C35.5567 30.4667 34.2633 28.7033 34.535 26.7733L34.5367 26.7767ZM41.6783 47.0917L49.6417 54.2233L44.0067 58.6217C42.8617 59.515 41.4517 60 40 60C38.5483 60 37.1383 59.515 35.9933 58.6217L31.0267 54.745C29.855 53.83 28.4117 53.3333 26.925 53.3333H21.6667C20.7467 53.3333 20 52.5867 20 51.6667V40C20 39.08 20.7467 38.3333 21.6667 38.3333H27.535C28.1833 38.3333 28.8267 38.2667 29.4583 38.1417C30.4733 39.4533 31.725 40.5667 33.1517 41.4233C31.4333 43.2067 31.175 45.975 32.5633 47.8967C33.43 49.1033 34.5017 50 36.4517 50C37.7717 50 39.23 49.48 40.1217 48.5833L41.68 47.0917H41.6783ZM40 43.3333C40.315 43.3333 40.6217 43.3083 40.9317 43.2867L37.8167 46.1767C37.4717 46.5233 36.995 46.7017 36.5033 46.66C36.0067 46.62 35.57 46.3683 35.2717 45.9517C34.815 45.3183 34.955 44.3267 35.5733 43.7067L36.4567 42.84C37.5867 43.1517 38.7717 43.3317 40.0017 43.3317L40 43.3333ZM60 40V51.6667C60 52.5867 59.2533 53.3333 58.3333 53.3333H53.6433L42.2483 43.13C45.6267 42.555 48.5667 40.715 50.57 38.1067C51.2417 38.2467 51.925 38.335 52.615 38.335H58.3333C59.2533 38.335 60 39.0817 60 40.0017V40Z" fill="#70D4FB"/>
</g>
<defs>
<clipPath id="clip0_211_3892">
<rect width="40" height="40" fill="white" transform="translate(20 20)"/>
</clipPath>
</defs>
</svg>
