<svg width="559" height="543" viewBox="0 0 559 543" fill="none" xmlns="http://www.w3.org/2000/svg">
<g clip-path="url(#clip0_138_357)">
<path d="M460.499 333.446L281.004 229.731C265.265 220.704 239.799 220.704 224.237 229.731L45.8027 333.446C38.0216 337.871 33.7773 343.888 33.7773 350.437C33.7773 356.985 38.0216 363.003 45.9795 367.428L225.475 471.143C233.256 475.745 243.69 478.045 253.947 477.868C264.203 477.868 274.46 475.568 282.241 471.143L368.01 421.232L368.364 421.409L368.718 420.701L460.322 367.428C468.103 363.003 472.347 356.985 472.347 350.437C472.524 344.065 468.28 338.048 460.499 333.446ZM281.534 469.727C266.326 478.576 241.744 478.576 226.536 469.727L47.0406 366.012C39.79 361.764 35.7226 356.277 35.7226 350.437C35.7226 344.596 39.6132 339.11 46.8637 335.039L133.163 284.774L132.986 285.128L366.419 420.17L281.534 469.727ZM459.792 366.012L368.187 419.285L134.578 284.066L225.121 231.324C232.725 226.899 242.629 224.775 252.532 224.775C262.435 224.775 272.515 226.899 280.119 231.324L459.615 335.039C466.865 339.287 470.933 344.773 470.933 350.614C470.756 356.277 466.865 361.764 459.792 366.012Z" fill="#494949"/>
<path d="M117.777 91.3259L117.954 182.298L231.841 116.458L231.664 25.4863L117.777 91.3259Z" fill="url(#paint0_linear_138_357)"/>
<path d="M161.634 101.237V106.193L210.796 76.105V71.3263L161.634 101.237Z" fill="#737373"/>
<path d="M176.312 109.379V114.334L210.796 93.2728V88.3172L176.312 109.379Z" fill="#737373"/>
<path d="M140.767 149.378L140.943 154.334L210.796 111.503V106.724L140.943 149.378H140.767Z" fill="#737373"/>
<path d="M140.943 131.148V135.927L164.994 121.237V116.281L140.943 131.148Z" fill="#737373"/>
<path d="M140.943 113.98V118.936L150.847 112.742V107.963L140.943 113.98Z" fill="#737373"/>
<path d="M140.943 94.8657L210.619 51.8576V56.8132L140.943 99.6444V94.8657Z" fill="#737373"/>
<path d="M140.943 149.378H140.767L140.943 154.334V149.378Z" fill="#737373"/>
<path d="M548.389 201.236L548.212 205.837L482.604 165.484V160.882L548.389 201.236Z" fill="#898989"/>
<path d="M548.212 217.165V221.766L482.427 181.59L482.604 176.988L548.212 217.165Z" fill="#898989"/>
<path d="M529.113 222.651V227.253L494.275 205.837V201.236L529.113 222.651Z" fill="#898989"/>
<path d="M548.035 187.608L482.604 147.431V142.83L548.035 183.006V187.608Z" fill="#898989"/>
<path d="M559 172.387L558.646 261.766L469.518 210.439L469.694 121.237L559 172.387Z" fill="url(#paint1_linear_138_357)"/>
<path d="M427.253 172.918C466.335 195.572 466.512 232.209 427.783 254.863C388.878 277.518 325.745 277.518 286.486 254.863C247.404 232.209 247.227 195.572 285.955 172.918C324.861 150.263 388.171 150.263 427.253 172.918Z" fill="url(#paint2_linear_138_357)"/>
<path d="M427.783 252.031C388.878 274.686 325.745 274.686 286.486 252.031C267.387 241.058 257.66 226.722 257.13 212.209C256.599 227.607 266.326 243.005 286.486 254.686C325.568 277.341 388.878 277.341 427.783 254.686C447.766 243.005 457.316 227.784 456.785 212.563C456.255 227.076 446.529 241.235 427.783 252.031Z" fill="url(#paint3_linear_138_357)"/>
<path d="M407.8 184.245C436.095 200.528 436.272 227.076 408.154 243.536C380.036 259.819 334.233 259.819 305.939 243.536C277.644 227.253 277.467 200.705 305.585 184.245C333.703 167.785 379.505 167.785 407.8 184.245Z" fill="url(#paint4_linear_138_357)"/>
<path d="M305.585 190.616C333.703 174.333 379.506 174.333 407.8 190.616C420.71 198.05 427.607 207.607 428.845 217.165C430.436 205.306 423.363 193.271 407.8 184.245C379.506 167.962 333.703 167.962 305.585 184.245C290.2 193.271 283.303 205.129 284.895 216.988C286.133 207.253 293.029 197.873 305.585 190.616Z" fill="url(#paint5_linear_138_357)"/>
<path d="M456.786 214.156L456.609 280.88C458.2 296.809 448.651 312.915 427.783 325.127C388.878 347.782 325.745 347.782 286.486 325.127C266.856 313.8 256.953 298.756 256.953 283.889H256.776L256.953 213.625C256.953 228.492 266.856 243.359 286.486 254.686C325.568 277.341 388.878 277.341 427.783 254.686C447.059 243.536 456.786 228.846 456.786 214.156Z" fill="url(#paint6_linear_138_357)"/>
<path d="M456.785 258.403C456.078 272.562 446.352 286.544 427.783 297.34C388.878 319.995 325.745 319.995 286.486 297.34C266.856 286.013 256.953 270.969 256.953 256.102V242.474C256.953 257.341 266.856 272.208 286.486 283.535C325.568 306.19 388.878 306.19 427.783 283.535C445.821 273.093 455.371 259.642 456.609 245.837V252.916C456.609 253.447 456.785 254.155 456.785 254.686C456.785 256.102 456.785 257.164 456.785 258.403Z" fill="url(#paint7_linear_138_357)"/>
<path d="M429.021 210.793V0H284.894V210.616C283.303 222.474 290.376 234.509 305.938 243.536C334.233 259.819 380.036 259.819 408.154 243.536C423.539 234.509 430.436 222.474 429.021 210.793Z" fill="url(#paint8_linear_138_357)"/>
<g opacity="0.68">
<path d="M320.794 39.9994V250.084C315.488 248.315 310.537 246.014 305.939 243.536C305.585 243.359 305.232 243.182 304.878 242.828V39.9994H320.794Z" fill="url(#paint9_linear_138_357)"/>
<path d="M369.426 39.9994V255.217C360.76 256.102 352.095 256.102 343.43 255.04V39.9994H369.426Z" fill="url(#paint10_linear_138_357)"/>
<path d="M415.228 63.1848V238.757C413.106 240.35 410.807 241.943 408.154 243.536C405.678 244.952 403.202 246.191 400.55 247.43V63.3618H415.228V63.1848Z" fill="url(#paint11_linear_138_357)"/>
</g>
<g clip-path="url(#clip1_138_357)">
<path d="M413.193 113.272C418.158 77.3204 396.714 44.6435 365.298 40.286C333.882 35.9284 304.389 61.5404 299.424 97.4919C294.459 133.443 315.902 166.12 347.319 170.478C378.735 174.835 408.228 149.223 413.193 113.272Z" fill="#70D4FB"/>
<path d="M402.848 109.989C407.817 74.0411 388.753 41.6941 360.269 37.74C331.784 33.7858 304.665 59.7218 299.696 95.6696C294.728 131.617 313.792 163.965 342.276 167.919C370.761 171.873 397.88 145.937 402.848 109.989Z" fill="#84D9FA"/>
<path d="M393.559 108.73C397.779 78.1963 381.663 50.7316 357.562 47.3859C333.461 44.0403 310.502 66.0806 306.282 96.6144C302.062 127.148 318.178 154.613 342.279 157.959C366.38 161.304 389.339 139.264 393.559 108.73Z" fill="#43AAD2"/>
<path opacity="0.3" d="M308.146 98.153C312.369 67.5955 335.312 45.5688 359.419 48.9011C367.033 49.9675 373.85 53.4331 379.502 58.6315C373.584 52.5667 366.202 48.5012 357.823 47.3349C333.716 44.0026 310.773 66.0627 306.55 96.5868C303.658 117.481 310.308 136.908 322.477 148.205C311.305 136.741 305.387 118.114 308.146 98.153Z" fill="black"/>
<path d="M375.246 123.812L375.113 124.878C373.816 135.309 365.87 141.74 357.391 139.241L357.025 139.141L356.327 144.706L346.451 141.773L347.149 136.208L343.093 135.009L342.395 140.574L332.519 137.641L333.217 132.076L330.923 131.376L326.035 129.91L327.531 117.747L332.419 119.213L334.281 104.651L335.778 92.4881L337.407 79.3587L332.519 77.8924L334.015 65.7294L338.903 67.1956L341.197 67.8954L342.029 61.0641L351.904 63.9966L351.073 70.8279L355.13 72.0275L355.961 65.1962L365.836 68.1287L364.972 75.0266C372.653 77.8924 377.807 87.6562 376.609 97.32L376.476 98.3197C375.944 102.518 374.315 106.017 371.988 108.517C374.614 112.849 375.944 118.347 375.246 123.812ZM365.271 121.946L365.404 120.88C365.87 117.147 363.775 113.382 360.749 112.482L359.485 112.116L344.157 107.584L342.361 122.179L344.456 122.812L358.953 127.111C361.946 127.977 364.805 125.678 365.271 121.946ZM347.282 82.2911L345.653 95.4205L360.982 99.9525C363.708 100.752 366.235 98.6862 366.668 95.3539L366.801 94.3542C367.2 90.9885 365.338 87.6229 362.611 86.8231L349.377 82.8909L347.282 82.2911Z" fill="#70D4FB"/>
<path d="M353.6 144.306L356.36 144.672L352.004 139.741L353.6 144.306Z" fill="#70D4FB"/>
<path d="M339.668 140.174L342.428 140.574L338.97 137.008L339.668 140.174Z" fill="#70D4FB"/>
<path d="M324.805 117.381L327.564 117.78L328.23 121.446L324.805 117.381Z" fill="#70D4FB"/>
<path d="M331.256 65.3629L334.016 65.7627L336.31 69.6283L331.256 65.3629Z" fill="#70D4FB"/>
<path d="M339.302 60.6643L342.062 61.0641L342.893 63.8966L339.302 60.6643Z" fill="#70D4FB"/>
<path d="M353.201 64.7964L355.961 65.1962L365.836 68.0954L363.077 67.7288L353.201 64.7964Z" fill="#70D4FB"/>
<path d="M349.145 63.5967L351.905 63.9966L351.073 70.7946L348.313 70.428L349.145 63.5967Z" fill="#31A1CC"/>
<path d="M363.076 67.7288L365.836 68.0954L364.972 74.9933C364.972 74.9933 364.506 74.8267 362.212 74.6267L363.076 67.7288Z" fill="#31A1CC"/>
<path d="M372.486 123.412L372.353 124.478C371.057 134.909 363.11 141.34 354.631 138.841L354.265 138.741L353.567 144.306L343.691 141.373L344.39 135.808L340.333 134.609L339.635 140.174L329.759 137.241L330.457 131.676L328.163 130.977L323.309 129.544L324.805 117.381L329.693 118.847L331.488 104.251L332.985 92.0882L334.614 78.9588L329.726 77.4926L331.222 65.3295L336.11 66.7958L338.404 67.4956L339.236 60.6643L349.111 63.5967L348.28 70.428L352.336 71.6277L353.168 64.7964L363.043 67.7288L362.179 74.6268C369.86 77.4926 375.013 87.2563 373.816 96.9201L373.683 97.9198C373.151 102.119 371.522 105.617 369.195 108.117C371.855 112.449 373.185 117.947 372.486 123.412ZM362.478 121.546L362.611 120.48C363.076 116.747 360.982 112.982 357.956 112.082L356.692 111.716L341.364 107.184L339.568 121.779L341.663 122.412L356.16 126.711C359.186 127.578 362.046 125.278 362.478 121.546ZM344.489 81.8912L342.86 95.0206L358.189 99.5526C360.915 100.352 363.442 98.2863 363.874 94.954L364.007 93.9543C364.406 90.5886 362.544 87.223 359.818 86.4232L346.584 82.5244L344.489 81.8912Z" fill="#84D9FA"/>
</g>
<path d="M434.857 392.737L365.358 433.09L295.682 392.737L365.004 352.384L434.857 392.737Z" fill="url(#paint12_linear_138_357)"/>
<path d="M434.857 392.737L365.358 433.09L295.682 392.737L297.627 391.675L365.358 430.789L432.735 391.675L434.857 392.737Z" fill="white"/>
<path d="M409.922 392.737L365.358 418.754L320.439 392.737L365.004 366.897L409.922 392.737Z" fill="url(#paint13_linear_138_357)"/>
<path d="M365.358 433.09L295.682 392.737L295.505 430.789L365.358 471.143L434.68 430.789L434.857 392.737L365.358 433.09Z" fill="url(#paint14_linear_138_357)"/>
<path d="M434.68 408.135L365.358 448.488L295.505 408.135V414.684L365.358 455.037L434.68 414.684V408.135Z" fill="url(#paint15_linear_138_357)"/>
<path d="M320.439 392.737L326.452 396.1L365.004 373.622V366.897L320.439 392.737Z" fill="#444444"/>
<path d="M365.004 366.897V373.622L403.909 396.277L409.922 392.737L365.004 366.897Z" fill="#444444"/>
<g clip-path="url(#clip2_138_357)">
<path d="M392.048 335.364C389.657 333.156 386.35 329.786 383.657 327.395L383.497 327.283C383.232 327.071 382.933 326.904 382.613 326.789C376.118 325.578 345.893 319.928 345.303 320C345.138 320.023 344.98 320.083 344.841 320.175L344.69 320.295C344.503 320.484 344.362 320.713 344.275 320.964L344.235 321.068V321.634V321.721C347.638 331.196 361.073 362.234 363.719 369.518C363.878 370.012 364.181 370.952 364.747 371H364.874C365.177 371 366.468 369.295 366.468 369.295C366.468 369.295 389.546 341.308 391.881 338.328C392.183 337.961 392.45 337.566 392.677 337.149C392.736 336.822 392.708 336.486 392.598 336.173C392.487 335.86 392.298 335.582 392.048 335.364ZM372.389 338.623L382.238 330.455L388.016 335.778L372.389 338.623ZM368.564 338.089L351.606 324.192L379.043 329.252L368.564 338.089ZM370.094 341.731L387.45 338.934L367.608 362.84L370.094 341.731ZM349.303 325.578L367.146 340.719L364.564 362.856L349.303 325.578Z" fill="url(#paint16_linear_138_357)"/>
</g>
<path d="M321.147 291.323V393.268L365.889 419.285L410.453 393.268V291.323H321.147Z" fill="url(#paint17_linear_138_357)"/>
<path d="M202.839 251.323L133.517 291.677L63.6641 251.323L133.163 210.97L202.839 251.323Z" fill="url(#paint18_linear_138_357)"/>
<path d="M202.839 251.323L133.517 291.677L63.6641 251.323L65.7862 250.084L133.517 289.199L200.894 250.084L202.839 251.323Z" fill="white"/>
<path d="M178.081 251.323L133.517 277.164L88.5986 251.323L133.163 225.306L178.081 251.323Z" fill="url(#paint19_linear_138_357)"/>
<path d="M133.517 291.677L63.6641 251.323V289.376L133.517 329.729L202.839 289.376V251.323L133.517 291.677Z" fill="url(#paint20_linear_138_357)"/>
<path d="M202.839 266.721L133.517 307.075L63.6641 266.721V273.27L133.517 313.623L202.839 273.27V266.721Z" fill="url(#paint21_linear_138_357)"/>
<path d="M88.5986 251.323L94.6113 254.686L133.163 232.209V225.306L88.5986 251.323Z" fill="#444444"/>
<path d="M133.163 225.306V232.209L172.068 254.686L178.081 251.323L133.163 225.306Z" fill="#444444"/>
<g clip-path="url(#clip3_138_357)">
<path d="M132.627 230L150.748 193.861L132.627 185.033V230Z" fill="#3CBFF2"/>
<path d="M132.627 230V185.033L114.001 193.329L132.627 230Z" fill="#70D4FB"/>
<path d="M114.001 193.329L132.648 201.178L150.748 193.861L132.627 185.033L114.001 193.329Z" fill="#3096BE"/>
<path d="M122.42 193.223L132.522 197.477L142.33 193.52L132.522 188.734L122.42 193.223Z" fill="#58C3ED"/>
<path d="M132.375 150L114.274 186.139L132.375 194.967V150Z" fill="#3CBFF2"/>
<path d="M132.375 150V194.967L151.001 186.671L132.375 150Z" fill="#70D4FB"/>
</g>
<path d="M90.0137 150.44V252.385L134.932 278.403L179.496 252.385V150.44H90.0137Z" fill="url(#paint22_linear_138_357)"/>
<path d="M212.212 401.055L142.713 441.409L73.0371 401.055L142.359 360.702L212.212 401.055Z" fill="url(#paint23_linear_138_357)"/>
<path d="M212.212 401.055L142.713 441.409L73.0371 401.055L74.9824 399.993L142.713 439.108L210.09 399.993L212.212 401.055Z" fill="white"/>
<path d="M187.277 401.055L142.713 427.073L97.7949 401.055L142.359 375.215L187.277 401.055Z" fill="url(#paint24_linear_138_357)"/>
<path d="M142.713 441.409L73.0372 401.055L72.8604 439.108L142.713 479.461L212.036 439.108L212.212 401.055L142.713 441.409Z" fill="url(#paint25_linear_138_357)"/>
<path d="M212.036 416.63L142.713 456.984L72.8604 416.63V423.002L142.713 463.355L212.036 423.002V416.63Z" fill="url(#paint26_linear_138_357)"/>
<path d="M97.7949 401.055L103.808 404.595L142.359 382.118V375.215L97.7949 401.055Z" fill="#444444"/>
<path d="M142.359 375.215V382.118L181.265 404.595L187.277 401.055L142.359 375.215Z" fill="#444444"/>
<g clip-path="url(#clip4_138_357)">
<path fill-rule="evenodd" clip-rule="evenodd" d="M142.001 330.012L129.96 342.053L129.96 342.052L122.955 335.046L142.001 316L161.053 335.052L154.047 342.058L142.001 330.012ZM118.007 339.993L111.001 347L118.007 354.005L125.013 346.999L118.007 339.993ZM142.001 363.988L129.96 351.948L122.945 358.944L122.955 358.954L142.001 378L161.053 358.948L161.057 358.944L154.047 351.942L142.001 363.988ZM165.995 339.997L158.989 347.003L165.995 354.009L173.001 347.002L165.995 339.997ZM149.109 346.996H149.107L149.113 347L149.11 347.004L142.001 354.113L134.898 347.009L134.888 346.999L134.898 346.989L136.143 345.744L136.746 345.14L142.001 339.887L149.109 346.996Z" fill="url(#paint27_linear_138_357)"/>
</g>
<path d="M98.2148 299.369V401.315L143.133 427.332L187.697 401.315V299.369H98.2148Z" fill="url(#paint28_linear_138_357)"/>
</g>
<defs>
<linearGradient id="paint0_linear_138_357" x1="188.803" y1="135.463" x2="145.155" y2="37.2639" gradientUnits="userSpaceOnUse">
<stop stop-color="white" stop-opacity="0"/>
<stop offset="1"/>
</linearGradient>
<linearGradient id="paint1_linear_138_357" x1="500.861" y1="221.483" x2="542.38" y2="128.075" gradientUnits="userSpaceOnUse">
<stop stop-color="white" stop-opacity="0"/>
<stop offset="1"/>
</linearGradient>
<linearGradient id="paint2_linear_138_357" x1="462.315" y1="284.767" x2="266.705" y2="153.373" gradientUnits="userSpaceOnUse">
<stop stop-color="#1E1E1E"/>
<stop offset="1" stop-color="#6C6C6C"/>
</linearGradient>
<linearGradient id="paint3_linear_138_357" x1="257.072" y1="242.039" x2="456.768" y2="242.039" gradientUnits="userSpaceOnUse">
<stop offset="0.0166997" stop-color="#1E1E1E"/>
<stop offset="1" stop-color="#FFFDFE"/>
</linearGradient>
<linearGradient id="paint4_linear_138_357" x1="425.699" y1="259.09" x2="262.864" y2="152.172" gradientUnits="userSpaceOnUse">
<stop stop-color="#3199C1"/>
<stop offset="1" stop-color="#70D4FB"/>
</linearGradient>
<linearGradient id="paint5_linear_138_357" x1="354.379" y1="234.805" x2="373.451" y2="77.8175" gradientUnits="userSpaceOnUse">
<stop stop-color="#1E1E1E"/>
<stop offset="0.9648" stop-color="#6C6C6C"/>
</linearGradient>
<linearGradient id="paint6_linear_138_357" x1="506.259" y1="390.346" x2="295.321" y2="203.351" gradientUnits="userSpaceOnUse">
<stop stop-color="#1E1E1E"/>
<stop offset="0.9648" stop-color="#6C6C6C"/>
</linearGradient>
<linearGradient id="paint7_linear_138_357" x1="478.046" y1="367.367" x2="305.629" y2="214.522" gradientUnits="userSpaceOnUse">
<stop stop-color="#3199C1"/>
<stop offset="1" stop-color="#70D4FB"/>
</linearGradient>
<linearGradient id="paint8_linear_138_357" x1="356.919" y1="236.304" x2="356.919" y2="-5.43637" gradientUnits="userSpaceOnUse">
<stop stop-color="#70D4FB" stop-opacity="0.4"/>
<stop offset="1" stop-color="#18181A" stop-opacity="0"/>
</linearGradient>
<linearGradient id="paint9_linear_138_357" x1="312.876" y1="316.015" x2="312.876" y2="59.6077" gradientUnits="userSpaceOnUse">
<stop stop-color="#70D4FB"/>
<stop offset="1" stop-color="white" stop-opacity="0"/>
</linearGradient>
<linearGradient id="paint10_linear_138_357" x1="356.403" y1="316.015" x2="356.403" y2="59.6058" gradientUnits="userSpaceOnUse">
<stop stop-color="#70D4FB"/>
<stop offset="1" stop-color="white" stop-opacity="0"/>
</linearGradient>
<linearGradient id="paint11_linear_138_357" x1="407.964" y1="316.015" x2="407.964" y2="59.6059" gradientUnits="userSpaceOnUse">
<stop stop-color="#70D4FB"/>
<stop offset="1" stop-color="white" stop-opacity="0"/>
</linearGradient>
<linearGradient id="paint12_linear_138_357" x1="451.133" y1="463.536" x2="353.083" y2="382.907" gradientUnits="userSpaceOnUse">
<stop stop-color="#1E1E1E"/>
<stop offset="0.9648" stop-color="#6C6C6C"/>
</linearGradient>
<linearGradient id="paint13_linear_138_357" x1="320.493" y1="392.752" x2="409.9" y2="392.752" gradientUnits="userSpaceOnUse">
<stop stop-color="#3199C1"/>
<stop offset="1" stop-color="#70D4FB"/>
</linearGradient>
<linearGradient id="paint14_linear_138_357" x1="414.147" y1="478.344" x2="326.764" y2="359.809" gradientUnits="userSpaceOnUse">
<stop stop-color="#1E1E1E"/>
<stop offset="0.9837" stop-color="#6C6C6C"/>
</linearGradient>
<linearGradient id="paint15_linear_138_357" x1="454.938" y1="468.591" x2="316.128" y2="380.424" gradientUnits="userSpaceOnUse">
<stop stop-color="#3199C1"/>
<stop offset="1" stop-color="#70D4FB"/>
</linearGradient>
<linearGradient id="paint16_linear_138_357" x1="368.471" y1="319.999" x2="368.471" y2="371" gradientUnits="userSpaceOnUse">
<stop stop-color="#3CBFF2"/>
<stop offset="1" stop-color="#70D4FB"/>
</linearGradient>
<linearGradient id="paint17_linear_138_357" x1="365.788" y1="409.557" x2="365.788" y2="288.603" gradientUnits="userSpaceOnUse">
<stop stop-color="#70D4FB" stop-opacity="0.4"/>
<stop offset="1" stop-color="#18181A" stop-opacity="0"/>
</linearGradient>
<linearGradient id="paint18_linear_138_357" x1="219.265" y1="322.037" x2="121.215" y2="241.407" gradientUnits="userSpaceOnUse">
<stop stop-color="#1E1E1E"/>
<stop offset="0.9648" stop-color="#6C6C6C"/>
</linearGradient>
<linearGradient id="paint19_linear_138_357" x1="88.625" y1="251.252" x2="178.032" y2="251.252" gradientUnits="userSpaceOnUse">
<stop stop-color="#3199C1"/>
<stop offset="1" stop-color="#70D4FB"/>
</linearGradient>
<linearGradient id="paint20_linear_138_357" x1="182.279" y1="336.844" x2="94.8958" y2="218.309" gradientUnits="userSpaceOnUse">
<stop stop-color="#1E1E1E"/>
<stop offset="0.9837" stop-color="#6C6C6C"/>
</linearGradient>
<linearGradient id="paint21_linear_138_357" x1="223.07" y1="327.092" x2="84.2598" y2="238.925" gradientUnits="userSpaceOnUse">
<stop stop-color="#3199C1"/>
<stop offset="1" stop-color="#70D4FB"/>
</linearGradient>
<linearGradient id="paint22_linear_138_357" x1="134.743" y1="268.674" x2="134.743" y2="147.72" gradientUnits="userSpaceOnUse">
<stop stop-color="#70D4FB" stop-opacity="0.4"/>
<stop offset="1" stop-color="#18181A" stop-opacity="0"/>
</linearGradient>
<linearGradient id="paint23_linear_138_357" x1="228.507" y1="471.88" x2="130.457" y2="391.25" gradientUnits="userSpaceOnUse">
<stop stop-color="#1E1E1E"/>
<stop offset="0.9648" stop-color="#6C6C6C"/>
</linearGradient>
<linearGradient id="paint24_linear_138_357" x1="97.8674" y1="401.095" x2="187.274" y2="401.095" gradientUnits="userSpaceOnUse">
<stop stop-color="#3199C1"/>
<stop offset="1" stop-color="#70D4FB"/>
</linearGradient>
<linearGradient id="paint25_linear_138_357" x1="191.521" y1="486.687" x2="104.138" y2="368.152" gradientUnits="userSpaceOnUse">
<stop stop-color="#1E1E1E"/>
<stop offset="0.9837" stop-color="#6C6C6C"/>
</linearGradient>
<linearGradient id="paint26_linear_138_357" x1="232.312" y1="476.935" x2="93.5023" y2="388.767" gradientUnits="userSpaceOnUse">
<stop stop-color="#3199C1"/>
<stop offset="1" stop-color="#70D4FB"/>
</linearGradient>
<linearGradient id="paint27_linear_138_357" x1="142" y1="339.887" x2="142" y2="354.113" gradientUnits="userSpaceOnUse">
<stop stop-color="#70D4FB"/>
<stop offset="1" stop-color="#3CBFF2"/>
</linearGradient>
<linearGradient id="paint28_linear_138_357" x1="142.944" y1="417.603" x2="142.944" y2="296.649" gradientUnits="userSpaceOnUse">
<stop stop-color="#70D4FB" stop-opacity="0.4"/>
<stop offset="1" stop-color="#18181A" stop-opacity="0"/>
</linearGradient>
<clipPath id="clip0_138_357">
<rect width="559" height="543" fill="white"/>
</clipPath>
<clipPath id="clip1_138_357">
<rect width="115.214" height="157.886" fill="white" transform="translate(298.703 37.3379)"/>
</clipPath>
<clipPath id="clip2_138_357">
<rect width="51" height="51" fill="white" transform="translate(343 320)"/>
</clipPath>
<clipPath id="clip3_138_357">
<rect width="37" height="80" fill="white" transform="translate(114.001 150)"/>
</clipPath>
<clipPath id="clip4_138_357">
<rect width="62" height="67" fill="white" transform="translate(111.001 316)"/>
</clipPath>
</defs>
</svg>
