<svg width="24" height="24" viewBox="0 0 24 24" fill="none" xmlns="http://www.w3.org/2000/svg">
<path d="M20.2 3.60001C21.1 4.30001 21.1 4.80001 20.3 5.60001C20 6.00001 19.6 6.40001 19.1 6.80001C20.9 8.20001 22.2 9.90001 23.4 11.7C23.8 12.3 23.8 12.9 23.4 13.4C22.3 14.7 21.4 16.1 20.2 17.4C18.2 19.4 15.6 20.3 12.8 20.4C10.8 20.5 8.9 20.3 7.1 19.5C6.9 19.4 6.6 19.5 6.5 19.6C6 20 5.5 20.5 5.1 21C4.6 21.5 4.1 21.5 3.7 21.1C3.3 20.7 3.3 20.2 3.7 19.7C3.8 19.6 4 19.4 4.1 19.3C9.1 14.3 14 9.40001 19 4.40001C19.3 4.10001 19.6 4.00001 19.9 3.70001C19.9 3.60001 20.1 3.60001 20.2 3.60001ZM16.2 9.80001C17.3 12.4 17.1 14.4 15.4 16C13.8 17.5 11.8 17.7 9.4 16.7C9 17.1 8.6 17.4 8.2 17.8C8.3 17.8 8.4 17.9 8.6 17.9C10.8 18.5 13 18.6 15.2 18C18.1 17.2 19.9 15.1 21.4 12.7C21.5 12.6 21.5 12.4 21.4 12.3C20.4 10.7 19.2 9.30001 17.7 8.20001C17.3 8.80001 16.8 9.30001 16.2 9.80001ZM14.8 11.4C13.5 12.7 12.3 13.9 11 15.1C12 15.7 13.4 15.3 14.2 14.5C14.9 13.8 15.4 12.4 14.8 11.4Z" fill="#848484"/>
<path d="M0.4 12.2C1.7 10 3.2 8 5.4 6.5C7.8 4.9 10.4 4.5 13.2 4.7C13.7 4.7 14.2 4.8 14.7 4.9C15.4 5 15.8 5.4 15.7 6C15.6 6.6 15.2 6.9 14.4 6.8C12.8 6.6 11.3 6.5 9.7 6.8C7.6 7.2 5.9 8.3 4.4 9.9C3.7 10.7 3.1 11.6 2.4 12.5C3.2 13.5 3.9 14.4 4.7 15.3C4.8 15.4 5 15.6 5.1 15.7C5.4 16.2 5.4 16.7 5 17C4.6 17.3 4 17.3 3.7 16.9C2.6 15.6 1.6 14.2 0.6 12.9L0.5 12.8C0.4 12.6 0.4 12.4 0.4 12.2Z" fill="#848484"/>
<path d="M7.2 12.3C7.3 9.80001 9.4 7.60001 12 7.60001C12.6 7.60001 13 7.90001 13.1 8.50001C13.2 9.10001 12.8 9.50001 12.1 9.60001C10.6 9.60001 9.2 10.9 9.1 12.6C9.1 13.2 8.6 13.6 8.1 13.6C7.6 13.4 7.2 13 7.2 12.3Z" fill="#848484"/>
</svg>
