<svg width="60" height="30" viewBox="0 0 60 30" fill="none" xmlns="http://www.w3.org/2000/svg">
<g clip-path="url(#clip0_1_42)">
<path d="M0.32019 20.1457C2.58812 10.0771 3.70874 8.02916 4.32241 8.14912C4.75599 8.23481 4.78267 9.36592 5.65649 11.5767C6.4636 13.6161 8.17122 17.0352 8.99167 16.7181C10.0656 16.3068 8.36466 10.0086 10.9928 3.86463C11.2729 3.21339 12.1868 1.11399 12.9939 1.29394C14.0078 1.5253 13.6076 5.09856 15.662 8.14912C16.7693 9.79437 17.2563 9.29737 18.3302 10.7198C21.1784 14.4816 19.8177 20.617 20.9983 21.0026C22.179 21.3882 23.9333 14.6701 25.6676 15.0043C27.2818 15.3128 27.1418 21.4053 29.0028 21.8595C30.3369 22.1765 30.7638 19.2888 33.6721 17.575C36.0934 16.144 37.0072 17.4379 39.0084 15.8612C39.5887 15.407 40.5159 13.8389 42.3435 10.7198C45.0117 6.12684 45.4252 5.01288 45.6787 3.86463C46.1456 1.78237 45.9589 0.539867 46.3458 0.437039C47.0128 0.248521 47.8399 4.26737 50.348 9.00602C51.6821 11.4653 52.4892 11.431 53.0161 13.2905C53.5031 15.0043 53.3697 16.4353 54.3502 18.4319C54.7971 19.3402 55.224 20.2057 55.6843 20.1457C56.6048 20.0257 56.8316 16.3496 57.6854 11.5767C58.2027 8.66618 58.8712 5.80344 59.6865 3.00773" stroke="#0ECB81" stroke-miterlimit="10"/>
</g>
<defs>
<clipPath id="clip0_1_42">
<rect width="60" height="30" fill="white"/>
</clipPath>
</defs>
</svg>
