<svg width="126" height="47" viewBox="0 0 126 47" fill="none" xmlns="http://www.w3.org/2000/svg">
<path d="M125 28.6504C124.203 29.5351 123.296 30.3147 122.302 30.9704C121.133 31.7404 120.724 31.7504 120.444 31.6804C119.764 31.5004 119.704 30.7504 118.975 29.6804C118.705 29.2904 117.366 27.3604 115.977 27.4104C115.038 27.4104 114.838 28.4104 112.89 30.2704C111.441 31.6504 110.722 32.3404 110.042 32.3804C107.405 32.5504 105.966 25.9304 103.788 26.1504C102.329 26.3004 102.409 29.2804 99.2314 31.1504C98.8347 31.4468 98.3831 31.6613 97.9028 31.7814C97.4226 31.9016 96.9232 31.925 96.4338 31.8504C95.1949 31.5304 95.085 30.3704 93.7061 28.9104C93.3264 28.5204 90.7086 25.9104 88.3206 26.3304C86.4022 26.6804 85.8027 28.7604 84.3239 28.5004C83.6791 28.3312 83.1221 27.9239 82.7652 27.3604C80.0674 24.0304 79.2482 24.5004 77.4697 22.0004C73.9926 17.0904 75.731 13.2604 72.3638 11.2704C71.2348 10.6004 71.065 11.0404 69.9759 10.3304C66.3789 7.97043 67.2082 2.50043 65.8093 2.27043C64.0608 1.98043 61.9625 10.2704 59.8742 10.0304C58.2656 9.84044 57.9559 4.80043 56.2872 4.74043C55.1482 4.69043 54.7385 6.99044 53.5495 7.00044C51.6112 7.00044 50.642 0.940443 48.9634 1.00044C47.6845 1.00044 47.8144 4.59044 45.4963 5.65044C43.1782 6.71044 41.4995 4.09044 39.2814 4.65044C34.915 5.77044 35.1549 17.0104 32.627 17.1804C30.5787 17.3204 28.8702 10.0704 26.7619 10.3904C25.7628 10.5504 25.8726 12.3904 24.0341 13.3904C23.205 13.7728 22.2969 13.9522 21.3848 13.914C20.4727 13.8757 19.5827 13.6209 18.7885 13.1704C17.0399 12.1704 16.7303 10.7204 16.0109 10.8704C14.8618 11.1204 15.6112 14.8704 13.6429 15.9904C12.3839 16.7304 11.5146 15.5704 10.3556 16.2604C8.41717 17.4104 9.93584 21.2104 7.41794 23.6104C7.22357 23.8367 6.98514 24.0208 6.7171 24.1515C6.44907 24.2822 6.15714 24.3567 5.8593 24.3704C5.45963 24.3704 4.65028 24.1904 3.33138 22.0504C2.3423 20.4429 1.62651 18.6824 1.21315 16.8404" stroke="#0ECB81" stroke-miterlimit="10"/>
<path d="M125 28.6504C124.196 29.5324 123.287 30.3117 122.292 30.9704C121.123 31.7404 120.724 31.7505 120.444 31.6705C119.764 31.4905 119.694 30.7505 118.975 29.6705C118.695 29.2805 117.366 27.3504 115.977 27.4104C114.978 27.4104 114.828 28.4105 112.89 30.2605C111.441 31.6505 110.712 32.3404 110.042 32.3804C107.405 32.5404 105.966 25.9205 103.778 26.1405C102.329 26.2905 102.399 29.2805 99.2214 31.1405C98.8264 31.4368 98.3768 31.652 97.8984 31.7738C97.42 31.8957 96.9223 31.9217 96.4338 31.8504C95.1849 31.5204 95.0749 30.3704 93.696 28.9104C93.3263 28.5104 90.7485 25.9104 88.3205 26.3204C86.3921 26.6804 85.8026 28.7504 84.2639 28.5004C83.6249 28.3245 83.0733 27.9186 82.7152 27.3605C80.0074 24.0305 79.1882 24.5004 77.4197 22.0004C73.9326 17.0804 75.6711 13.2605 72.3039 11.2605C71.1849 10.6005 71.015 11.0304 69.9259 10.3204C66.3289 7.97045 67.1482 2.50045 65.7493 2.26045C64.0108 1.97045 61.9026 10.2604 59.8143 10.0304C58.2157 9.84044 57.9058 4.80045 56.2272 4.73045C55.0982 4.73045 54.6885 6.98044 53.4995 7.00044C51.5512 7.00044 50.592 0.940443 48.9134 1.00044C47.6344 1.00044 47.7644 4.59046 45.4463 5.64046C43.1282 6.69046 41.4497 4.08046 39.2315 4.64046C34.8652 5.75046 35.1049 17.0005 32.577 17.1705C30.5787 17.3105 28.8202 10.0604 26.7119 10.3704C25.7127 10.5304 25.8227 12.3704 23.9742 13.3704C23.1457 13.7552 22.2372 13.936 21.3247 13.8977C20.4121 13.8594 19.522 13.6032 18.7286 13.1504C16.98 12.1504 16.7302 10.7005 15.9509 10.8605C14.8118 11.1105 15.5612 14.8105 13.5928 15.9805C12.3339 16.7205 11.4546 15.5504 10.2955 16.2404C8.36715 17.4004 9.88594 21.2404 7.35805 23.6004C7.16486 23.8281 6.9266 24.0132 6.65831 24.144C6.39003 24.2748 6.09748 24.3485 5.79929 24.3605C5.40961 24.3605 4.60026 24.1705 3.27137 22.0405C2.3506 20.4003 1.64217 18.6496 1.16314 16.8305C0.853397 16.8305 0.563702 22.4705 0.603668 46.9805H124.94L125 28.6504Z" fill="url(#paint0_linear_99_9057)"/>
<defs>
<linearGradient id="paint0_linear_99_9057" x1="62.8" y1="1" x2="63.052" y2="47" gradientUnits="userSpaceOnUse">
<stop stop-color="#0ECB81" stop-opacity="0.5"/>
<stop offset="0.782689" stop-color="#0ECB81" stop-opacity="0"/>
</linearGradient>
</defs>
</svg>
