<svg width="170" height="110" viewBox="0 0 170 110" fill="none" xmlns="http://www.w3.org/2000/svg">
<path d="M82.5597 24.8381C77.8696 24.5238 73.1554 24.2821 68.4895 23.8227C64.017 23.3876 59.5445 22.7107 55.3138 21.0425C54.5402 20.7283 53.7665 20.3414 53.0896 19.8338C51.7358 18.8426 51.6633 17.6096 53.0896 16.7393C54.516 15.869 56.0874 15.192 57.683 14.7085C59.5929 14.1283 61.5994 13.814 63.5818 13.4514C64.3313 13.3063 64.6697 13.0646 64.6939 12.2426C64.7423 10.0668 64.9115 7.89101 64.984 5.73939C65.0324 4.26468 65.6368 3.2493 66.9906 2.57238C69.8191 1.1702 72.9136 0.759219 75.9839 0.469112C82.8014 -0.207804 89.6431 -0.231981 96.4364 0.928447C98.3463 1.26691 100.208 1.968 102.069 2.62074C103.326 3.0559 103.907 4.07128 103.979 5.42511C104.076 7.67344 104.294 9.92177 104.318 12.1701C104.342 13.1129 104.705 13.3305 105.551 13.4998C108.331 14.1283 111.087 14.8778 113.819 15.6514C114.568 15.869 115.269 16.3283 115.922 16.7876C117.227 17.7547 117.276 18.8909 115.922 19.8096C114.931 20.4865 113.843 21.1151 112.682 21.381C108.766 22.2755 104.85 23.315 100.885 23.726C95.0584 24.3062 89.1838 24.4029 83.3091 24.693C83.0674 24.693 82.8256 24.693 82.5838 24.693C82.5597 24.7414 82.5597 24.7897 82.5597 24.8381Z" fill="#000"/>
<path d="M84.5657 31.5589C89.8118 31.5589 95.0337 31.5589 100.28 31.5589C102.383 31.5589 102.722 31.9699 102.552 34.0732C102.407 35.8863 102.311 37.6753 102.19 39.4885C102.069 41.3017 101.078 42.4379 99.2403 42.5104C96.2667 42.6071 93.2931 42.6313 90.3195 42.5346C88.4096 42.4863 87.5151 41.4951 87.3217 39.561C87.225 38.5698 87.225 37.5544 87.1525 36.5391C87.0074 34.8226 86.1371 33.9523 84.5899 33.9523C83.0426 33.9523 82.1481 34.7984 82.0031 36.5149C81.9064 37.4336 81.9064 38.3522 81.858 39.2951C81.7372 41.35 80.746 42.4863 78.7152 42.5346C75.8625 42.6313 72.9856 42.6313 70.1329 42.5346C68.0296 42.4621 67.0142 41.3258 66.8934 39.2467C66.7725 37.5303 66.6516 35.7896 66.5065 34.0732C66.3373 31.9215 66.6516 31.5347 68.8757 31.5347C74.0977 31.5589 79.3196 31.5589 84.5657 31.5589Z" fill="#000"/>
<path fill-rule="evenodd" clip-rule="evenodd" d="M82.7994 48.8265C81.0724 48.8337 79.347 48.8546 77.6279 48.8928C74.9928 48.917 73.8323 50.3434 74.2192 52.9301C74.8719 57.3301 75.4763 61.7542 76.0807 66.1784C76.3224 67.919 77.4587 69.0311 79.2235 69.0553C80.4009 69.0714 81.5891 69.066 82.7737 69.0606C83.3647 69.0579 83.9547 69.0553 84.5421 69.0553C85.4307 69.0553 86.3252 69.0612 87.2256 69.0672C88.1382 69.0733 89.0568 69.0794 89.9816 69.0794C91.7948 69.0553 92.9311 68.0399 93.1728 66.2509L93.1729 66.2504C93.7531 61.6572 94.3333 57.064 94.8651 52.4708C95.1069 50.3192 93.8497 48.917 91.6498 48.8928C89.913 48.8629 88.1705 48.8409 86.4265 48.8304C86.0366 49.4159 85.3705 49.8017 84.6143 49.8017C83.8564 49.8017 83.189 49.4142 82.7994 48.8265ZM79.3444 54.2114H84.6388C85.6482 54.2114 86.6636 54.2055 87.685 54.1995C88.7184 54.1934 89.7579 54.1873 90.8036 54.1873C92.3267 54.2114 92.9069 54.7917 92.9552 56.3147V57.5235C92.9552 58.5049 92.6812 58.9402 92.23 58.9402L88.7245 58.9884C88.7245 58.9884 87.8784 59.1093 87.9992 57.5379C88.1201 55.9665 87.3465 55.3138 86.1861 55.1687C85.2916 55.072 84.3246 55.0236 83.4542 55.1687C81.5444 55.5072 81.4235 55.8456 81.4235 57.7894C81.4718 58.7467 80.7466 58.9884 80.7466 58.9884H77.2411C77.2411 58.9884 76.3466 58.9632 76.3466 57.8861C76.3466 57.1296 76.3347 57.2331 76.3276 57.2946C76.3246 57.3207 76.3224 57.3393 76.3224 57.2817C76.2499 54.4048 76.4433 54.2114 79.3444 54.2114Z" fill="#000"/>
<path d="M118.049 18.7942C118.702 19.4711 118.267 20.1239 117.783 20.7041C115.922 22.904 113.432 24.0886 110.796 25.0557C104.801 27.2798 98.5394 28.2227 92.2296 28.3677C85.4846 28.537 78.7154 28.4403 71.9705 28.126C66.7485 27.8842 61.5508 27.0622 56.6673 25.0073C54.3706 24.0403 52.2674 22.7832 51.0586 20.4865C50.7926 20.003 50.7926 19.3502 50.841 18.7458C53.452 22.0096 57.2475 22.5414 60.8255 23.3392C69.7705 25.3216 78.8363 25.7084 87.9505 25.515C95.3966 25.3458 102.819 24.7414 110.071 22.8557C112.078 22.3238 114.012 21.5019 115.922 20.6557C116.695 20.3173 117.276 19.4953 118.049 18.7942Z" fill="#000"/>
<path d="M14.6746 110C12.8131 107.752 10.9757 105.479 9.01749 103.134C7.54278 104.923 6.09225 106.591 4.78677 108.356C3.98897 109.42 3.11865 110 1.789 109.782C1.23296 109.71 0.676916 109.758 0 109.758C0 103.376 0 97.0419 0 90.6112C1.1846 90.6112 2.39339 90.6112 3.72304 90.6112C3.72304 94.8177 3.72304 98.9759 3.72304 103.158C3.79557 103.207 3.89227 103.255 3.9648 103.279C5.63291 101.273 7.27685 99.2419 9.04167 97.1144C10.9757 99.4836 12.8856 101.804 14.7713 104.15C14.8922 104.295 14.9647 104.512 14.9647 104.706C14.9889 106.422 14.9647 108.138 14.9647 109.879C14.8438 109.927 14.7713 109.976 14.6746 110Z" fill="#000"/>
<path d="M41.6308 90.1277C45.0154 96.7276 48.3274 103.183 51.712 109.758C50.3582 109.758 49.1977 109.807 48.0373 109.734C47.6989 109.71 47.2153 109.323 47.1186 109.009C46.6593 107.365 45.6198 106.809 44 107.099C43.5407 107.171 43.0572 107.099 42.5011 107.099C42.5011 105.842 42.5011 104.706 42.5011 103.497C43.0572 103.448 43.589 103.424 44.3143 103.376C43.3956 101.514 42.5495 99.7496 41.6066 97.8155C40.0352 101.055 38.3671 104.029 37.11 107.171C36.2396 109.299 35.055 110.218 32.8309 109.782C32.4924 109.71 32.1056 109.782 31.5254 109.782C34.91 103.207 38.222 96.7518 41.6308 90.1277Z" fill="#000"/>
<path d="M148.632 109.782C151.34 106.446 153.83 103.376 156.441 100.185C153.902 97.0419 151.364 93.8991 148.656 90.5628C150.3 90.5628 151.702 90.5145 153.104 90.6112C153.491 90.6354 153.926 91.0705 154.216 91.409C155.764 93.2463 157.263 95.132 158.906 97.1386C160.526 95.1804 162.098 93.3189 163.597 91.409C164.104 90.7562 164.636 90.5145 165.434 90.5387C166.57 90.587 167.731 90.5628 169.181 90.5628C167.489 92.6419 166.014 94.4793 164.515 96.2924C161.034 100.572 157.577 104.851 154.047 109.105C153.757 109.468 153.153 109.734 152.669 109.758C151.388 109.831 150.155 109.782 148.632 109.782Z" fill="#000"/>
<path d="M120.008 90.6112C125.181 90.6112 130.21 90.6112 135.311 90.6112C135.311 91.82 135.311 92.9562 135.311 94.1892C130.21 94.1892 125.157 94.1892 120.008 94.1892C120.008 93.0046 120.008 91.8441 120.008 90.6112Z" fill="#000"/>
<path d="M91.5293 94.1892C91.5293 92.9804 91.5293 91.8441 91.5293 90.6112C96.5095 90.6112 101.441 90.6112 106.421 90.6112C106.421 91.82 106.421 92.9562 106.421 94.1892C101.417 94.1892 96.5095 94.1892 91.5293 94.1892Z" fill="#000"/>
<path d="M135.311 106.18C135.311 107.365 135.311 108.477 135.311 109.686C130.234 109.686 125.133 109.686 120.008 109.686C120.008 108.501 120.008 107.365 120.008 106.18C125.133 106.18 130.186 106.18 135.311 106.18Z" fill="#000"/>
<path d="M65.0566 90.6353C66.2654 90.6353 67.45 90.6353 68.7313 90.6353C68.7313 94.6485 68.7313 98.6375 68.7313 102.699C67.5226 102.699 66.3379 102.699 65.0566 102.699C65.0566 98.6858 65.0566 94.6968 65.0566 90.6353Z" fill="#000"/>
<path d="M65.0566 106.18C69.3357 106.18 73.5664 106.18 77.8697 106.18C77.8697 107.365 77.8697 108.477 77.8697 109.686C73.6148 109.686 69.3841 109.686 65.0566 109.686C65.0566 108.549 65.0566 107.389 65.0566 106.18Z" fill="#000"/>
<path d="M100.788 109.734C99.5308 109.734 98.3704 109.734 97.1133 109.734C97.1133 105.745 97.1133 101.804 97.1133 97.7913C98.3462 97.7913 99.5308 97.7913 100.788 97.7913C100.788 101.78 100.788 105.697 100.788 109.734Z" fill="#000"/>
<path d="M120.056 98.3474C123.078 98.3474 126.075 98.3474 129.146 98.3474C129.146 99.5562 129.146 100.741 129.146 101.974C126.148 101.974 123.174 101.974 120.056 101.974C120.056 100.813 120.056 99.6287 120.056 98.3474Z" fill="#000"/>
<path d="M18.0587 98.154C16.8016 98.154 15.6412 98.154 14.4082 98.154C14.4082 95.6397 14.4082 93.1738 14.4082 90.6112C15.6412 90.6112 16.8258 90.6112 18.0587 90.6112C18.0587 93.1496 18.0587 95.5913 18.0587 98.154Z" fill="#000"/>
<path d="M169.132 109.758C167.44 109.758 166.013 109.782 164.587 109.734C164.394 109.734 164.128 109.565 164.007 109.396C163.209 108.453 162.435 107.486 161.638 106.495C162.46 105.503 163.209 104.585 164.079 103.545C165.723 105.624 167.343 107.582 169.132 109.758Z" fill="#000"/>
</svg>
