<svg width="20" height="20" viewBox="0 0 20 20" fill="none" xmlns="http://www.w3.org/2000/svg">
<g clip-path="url(#clip0_1_976)">
<path fill-rule="evenodd" clip-rule="evenodd" d="M10.4167 2.49992C8.42754 2.49992 6.51989 3.29009 5.11337 4.69662C3.70684 6.10314 2.91667 8.0108 2.91667 9.99992C2.91667 11.989 3.70684 13.8967 5.11337 15.3032C6.51989 16.7097 8.42754 17.4999 10.4167 17.4999C12.3083 17.4999 14.0358 16.7999 15.3558 15.6441C11.8142 14.8558 9.16667 11.6958 9.16667 7.91659C9.16667 5.84409 9.96333 3.95825 11.2658 2.54742C10.9839 2.51572 10.7004 2.49987 10.4167 2.49992ZM1.25 9.99992C1.25 4.93742 5.35417 0.833252 10.4167 0.833252C11.4283 0.833252 12.4033 0.997419 13.315 1.30075C13.4619 1.34958 13.5923 1.43836 13.6916 1.55714C13.7908 1.67592 13.8551 1.82 13.877 1.97324C13.899 2.12647 13.8779 2.2828 13.816 2.42469C13.7541 2.56659 13.6539 2.68844 13.5267 2.77659C12.431 3.53455 11.6062 4.62282 11.1726 5.8826C10.739 7.14239 10.7193 8.50776 11.1164 9.77951C11.5136 11.0513 12.3067 12.1628 13.3801 12.952C14.4535 13.7413 15.751 14.1668 17.0833 14.1666C17.238 14.1669 17.3895 14.2102 17.5209 14.2916C17.6524 14.373 17.7586 14.4894 17.8278 14.6277C17.8969 14.766 17.9263 14.9208 17.9125 15.0748C17.8988 15.2289 17.8425 15.376 17.75 15.4999C16.0792 17.7249 13.4167 19.1666 10.4167 19.1666C5.35417 19.1666 1.25 15.0624 1.25 9.99992Z" fill="white"/>
</g>
<defs>
<clipPath id="clip0_1_976">
<rect width="20" height="20" fill="white"/>
</clipPath>
</defs>
</svg>
