<?xml version="1.0" encoding="utf-8"?>
<!-- Generator: Adobe Illustrator 24.3.0, SVG Export Plug-In . SVG Version: 6.00 Build 0)  -->
<svg version="1.1" id="Layer_1" xmlns="http://www.w3.org/2000/svg" xmlns:xlink="http://www.w3.org/1999/xlink" x="0px" y="0px"
	 viewBox="0 0 203.4 160.6" style="enable-background:new 0 0 203.4 160.6;" xml:space="preserve">
<style type="text/css">
	.st0{display:none;}
	.st1{display:inline;}
	.st2{fill:#407BFF;}
	.st3{opacity:0.9;fill:#FFFFFF;enable-background:new    ;}
	.st4{fill:#C6C6C6;}
</style>
<g id="Background_Simple" class="st0">
	<g class="st1">
		<path class="st2" d="M86.7-27.5c48.1,5.4,69.2-36.3,116.9-30.9c42.5,4.9,71.9,35.2,61.9,76c-8.8,36.2-50.8,47.6-65.7,81.6
			c-15.8,36-28.1,74.8-75.9,87.3C30.1,211.1-15.5,95.6-21.9,29.3C-24.3,3.8-28.6-57,4.6-64.9C38-72.8,57.2-30.8,86.7-27.5z"/>
		<path class="st3" d="M86.7-27.5c48.1,5.4,69.2-36.3,116.9-30.9c42.5,4.9,71.9,35.2,61.9,76c-8.8,36.2-50.8,47.6-65.7,81.6
			c-15.8,36-28.1,74.8-75.9,87.3C30.1,211.1-15.5,95.6-21.9,29.3C-24.3,3.8-28.6-57,4.6-64.9C38-72.8,57.2-30.8,86.7-27.5z"/>
	</g>
</g>
<g id="Character_1_">
</g>
<path class="st4" d="M133.5,75.2c4.2,0.2,8.1,0.2,11.9,0.7c17.2,2.6,31,16.6,33.7,33.8c3.4,21.6-10.2,41.7-31.5,46.6
	c-17.5,4-35.9-4.2-44.6-19.9c-0.6-1.1-1.2-1.4-2.5-1.2c-12.5,1.9-25,2.1-37.6,0.6c-7.8-0.9-15.5-2.3-22.7-5.3
	c-3.3-1.4-6.5-3.3-9.5-5.3c-3.4-2.4-4.9-5.9-4.9-10.2c0.1-29.8,0.1-59.6,0-89.4c0-4.6,1.8-8,5.2-10.7C35.9,11,41.6,9,47.5,7.4
	C62,3.7,76.7,2.8,91.6,4c9,0.7,17.8,2.2,26.3,5.2c4.2,1.5,8.1,3.4,11.5,6.4c2.8,2.5,4.3,5.6,4.3,9.5c-0.1,16.2,0,32.4,0,48.5
	C133.5,74.3,133.5,74.9,133.5,75.2z M31,33.2c0,6.7,0.2,13.2-0.1,19.6c-0.1,3.5,1.3,5.9,4,7.7c1,0.7,2.1,1.4,3.2,2
	c6.8,3.5,14.1,5.1,21.5,6.3c11.1,1.7,22.3,1.9,33.6,0.8c8-0.8,16-2.1,23.6-5c3.4-1.3,6.6-2.8,9.3-5.3c1.6-1.5,2.4-3.2,2.4-5.4
	c-0.1-6.3,0-12.6,0-18.9c0-0.5-0.1-0.9-0.1-1.6c-3.8,2.8-7.8,4.6-12,6c-12.1,4-24.6,5.3-37.3,5.2c-10,0-20-1-29.8-3.4
	C42.8,39.5,36.6,37.4,31,33.2z M76.9,8.6c-3.3,0.3-9.4,0.7-15.6,1.3c-2.3,0.2-4.6,0.7-7,1.2c-6.1,1.2-12,2.8-17.4,6
	c-1.7,1-3.4,2.4-4.7,3.9c-1.8,2-1.7,4.2,0,6.3c0.8,1,1.7,2,2.8,2.6c2.3,1.4,4.7,2.7,7.2,3.7c7.8,3.1,16.1,4.5,24.4,5.2
	c14.1,1.3,28.1,0.7,41.9-2.5c5.5-1.3,10.9-3,15.6-6.3c5.7-3.9,5.7-8.1,0-11.9c-2.8-1.8-5.9-3.3-9-4.4C103.7,9.8,91.8,8.8,76.9,8.6z
	 M128.4,64.2c-1.9,1.1-3.5,2.1-5.2,3c-7.3,3.7-15.1,5.4-23.1,6.6c-12.2,1.8-24.3,2-36.5,0.6c-7.7-0.9-15.4-2.3-22.6-5.1
	c-3.4-1.4-6.6-3.2-9.9-4.8c0,0,0,0.1,0,0.3c0,6.9-0.1,13.7,0.1,20.6c0,1.2,0.6,2.5,1.4,3.5c0.9,1.2,2.1,2.1,3.4,3
	c4.3,2.9,9.2,4.5,14.1,5.7c16.5,4,33.1,4.3,49.8,1.9c1-0.1,1.8-0.3,2.4-1.4c5.2-10.2,13.3-17.2,24.2-20.7c1.7-0.6,2.3-1.2,2.2-3.1
	C128.3,71,128.4,67.7,128.4,64.2z M100.1,130.2c-3-8.4-3.2-16.8-0.8-25.2c-0.2-0.1-0.3-0.2-0.4-0.2c-1.5,0.2-3,0.4-4.5,0.5
	c-13.2,1.2-26.3,1-39.3-1.5c-8.4-1.6-16.6-3.8-23.7-8.8c-0.1,0-0.2,0-0.3,0c0,7.1,0,14.3,0.1,21.5c0,1,0.6,2.2,1.2,3
	c1.1,1.2,2.3,2.5,3.7,3.2c3.1,1.6,6.3,3.2,9.5,4.3c10.2,3.4,20.8,4.5,31.5,4.7C84.7,131.9,92.3,131.4,100.1,130.2z M102.8,116.4
	c0,19.8,16.1,35.9,35.9,35.9c19.7,0,35.9-16.1,35.9-35.8c0-19.8-16.1-36-35.9-36C118.9,80.5,102.8,96.5,102.8,116.4z"/>
<path class="st4" d="M43.7,51c0,1.9-1.5,3.2-3.1,2.7c-1.2-0.3-2.4-0.8-3.4-1.5c-1-0.6-1.4-1.6-1-2.7c0.4-1.2,1.3-2.1,2.4-1.8
	c1.5,0.4,3,1.1,4.3,1.9C43.5,49.8,43.6,50.7,43.7,51z"/>
<path class="st4" d="M51.9,51.9c0.8,0.2,2,0.4,3.1,0.8c1.3,0.5,1.7,1.6,1.5,2.9c-0.2,1.2-1.4,2.1-2.6,1.9c-1.1-0.1-2.2-0.4-3.2-0.7
	c-1.3-0.4-2-1.6-1.7-2.9C49.2,52.7,50.2,51.9,51.9,51.9z"/>
<path class="st4" d="M107.9,114.6c0.4-10,5.5-19.3,16-25.1c10.5-5.7,21-5.2,31.2,0.9c0.8,0.5,1.6,1.3,2,2.1c0.6,1.3-0.3,2.2-1.2,3.1
	c-9.9,9.9-19.8,19.7-29.6,29.6c-2.8,2.8-5.6,5.6-8.4,8.4c-2,2-3.5,1.8-5.1-0.6C109.6,128.1,107.9,122.3,107.9,114.6z M116,128.1
	c0.4-0.3,0.8-0.6,1.1-1c3.4-3.4,6.9-6.8,10.3-10.3c0.5-0.6,1-1.5,1-2.3c0.1-6.6,0-13.2,0-19.8c0-0.5,0-1-0.1-1.5
	C115.3,98.2,108.8,115.3,116,128.1z M133.5,110.2c5.6-5.6,11.1-11.1,16.6-16.7c0,0-0.2-0.2-0.4-0.3c-4.8-2.2-9.8-3-15.1-2.2
	c-1,0.1-1.1,0.7-1.1,1.5c0,5.4,0,10.8,0,16.2C133.5,109.3,133.5,109.7,133.5,110.2z"/>
<path class="st4" d="M169.5,117.6c-0.5,10.9-5.6,20.2-16.2,25.9c-10.5,5.7-21.2,5-31.4-1.3c-2.3-1.4-2.4-3-0.5-4.9
	c12.7-12.8,25.5-25.5,38.2-38.2c1.9-1.9,3.4-1.7,4.9,0.6C167.8,104.8,169.5,110.4,169.5,117.6z M127.2,139.2
	c9.3,5.1,22.4,3.5,30.7-5.7c8-8.9,8-21.5,3.6-28.6C150,116.3,138.6,127.7,127.2,139.2z"/>
</svg>
