<svg width="60" height="30" viewBox="0 0 60 30" fill="none" xmlns="http://www.w3.org/2000/svg">
<g clip-path="url(#clip0_1_44)">
<path d="M0.286987 4.88439C1.52082 3.8608 2.91973 3.48246 4.29144 3.80135C6.12681 4.29955 6.50056 5.96742 8.96329 7.05045C10.2981 7.64612 12.02 8.43673 12.9677 7.05045C13.5684 6.1732 13.3215 5.18764 14.3026 2.71832C14.8031 1.45117 15.1435 0.62807 15.6374 0.552258C16.6051 0.411463 17.4727 3.24901 17.6396 3.80135C18.3671 6.18403 18.1735 7.7111 18.9744 12.4656C19.228 13.9819 19.3682 14.5017 19.6418 14.6317C20.4294 14.9891 21.03 11.5559 22.9789 10.2995C24.0934 9.58475 25.1212 9.90966 26.3159 10.2995C29.0323 11.1768 29.0923 12.9638 30.9878 13.5486C34.0311 14.4909 38.1491 11.2201 38.9967 7.05045C39.1769 6.16237 39.2236 5.15515 39.6641 4.88439C40.5918 4.31038 41.5395 8.05767 43.0011 8.13348C45.1769 8.25262 46.3849 0.140705 47.673 0.552258C48.4405 0.790525 48.5273 3.80135 50.3426 11.3826C50.8165 13.3645 51.1368 14.5234 51.6774 14.6317C52.9455 14.8808 53.8131 9.0324 55.0145 9.21652C55.9021 9.34648 56.3493 12.6822 57.0167 16.7977C57.7606 21.2053 58.6518 25.5438 59.6863 29.7941" stroke="#F6465D" stroke-miterlimit="10"/>
</g>
<defs>
<clipPath id="clip0_1_44">
<rect width="60" height="30" fill="white"/>
</clipPath>
</defs>
</svg>
