<svg width="126" height="43" viewBox="0 0 126 43" fill="none" xmlns="http://www.w3.org/2000/svg">
<path opacity="0.5" d="M126 30.1219C125.351 30.1219 124.311 30.1919 123.053 30.3419C121.794 30.4919 121.394 30.6219 120.934 30.4219C120.095 30.0619 119.935 29.1019 119.256 27.1219C118.386 24.3919 117.947 23.0219 117.537 22.9319C115.988 22.6119 112.631 29.1219 112.162 30.0319C111.522 31.2819 111.162 32.2319 110.313 32.3319C109.464 32.4319 108.904 31.5619 106.566 29.2019C104.228 26.8419 103.629 26.5719 103.259 26.6419C102.26 26.8219 102.31 28.3919 100.431 30.5619C99.3522 31.8219 98.7427 32.5619 98.0133 32.5619C95.2057 32.6219 92.548 22.3819 91.8585 19.7219C90.4597 14.3119 89.8601 9.66191 88.5212 9.59191C87.5221 9.54191 86.9126 11.9519 85.6936 11.8219C84.6945 11.7119 84.6944 9.88188 83.1357 8.94188C81.577 8.00188 80.7477 9.21188 78.8992 8.47188C77.4405 7.89188 76.6412 6.63188 75.3523 4.63188C73.8735 2.32188 73.6237 0.94188 73.0641 1.00188C72.5046 1.06188 72.3848 2.14189 71.0059 5.85189C70.4164 7.45189 70.2265 7.85188 69.8468 7.94188C68.498 8.28188 67.1391 4.39188 65.8502 4.63188C64.7311 4.85188 65.2906 7.91188 63.3623 12.1319C62.5209 14.0395 61.2807 15.7445 59.7253 17.1319C58.4264 18.2719 56.7278 19.7819 55.3389 19.2919C54.3397 18.9319 54.2498 17.7219 52.4713 13.6219C51.0225 10.2719 50.5629 9.94191 50.1333 9.87191C48.5846 9.63191 47.7452 13.0119 45.597 13.0919C43.7286 13.1619 43.1591 10.6319 41.7203 10.6219C38.3531 10.6219 36.4248 24.3319 33.8269 24.2119C32.2183 24.1419 32.3781 18.8519 28.2715 16.6719C26.503 15.7319 26.0235 16.4719 24.1051 15.4319C20.4381 13.4319 20.1781 9.64189 18.3996 9.73189C16.6211 9.82189 16.4013 13.1419 14.4029 13.3119C12.7043 13.4619 11.8751 11.1719 10.7261 11.4319C8.6378 11.9119 9.01741 20.1619 8.14813 20.2319C7.27886 20.3019 7.08918 10.1619 1.82357 7.81191C1.31776 7.58997 0.782662 7.44179 0.234806 7.37191V42.4519H126V30.1219Z" fill="url(#paint0_linear_99_9054)"/>
<path d="M126 30.1119C125.351 30.1119 124.321 30.1819 123.002 30.3319C121.684 30.4819 121.344 30.6119 120.884 30.4119C120.045 30.0419 119.885 29.0919 119.206 27.1119C118.346 24.3719 117.897 23.0019 117.487 22.9219C115.948 22.6019 112.581 29.1119 112.112 30.0219C111.472 31.2619 111.062 32.2119 110.263 32.3119C109.464 32.4119 108.854 31.5419 106.516 29.1819C104.178 26.8219 103.589 26.5519 103.209 26.6219C102.21 26.8119 102.21 28.3719 100.381 30.5519C99.3022 31.8119 98.6927 32.5519 97.9633 32.5519C95.1556 32.6119 92.4979 22.3818 91.8085 19.7218C90.4097 14.3018 89.8101 9.65187 88.4712 9.58187C87.472 9.58187 86.8726 11.9519 85.6436 11.8219C84.5945 11.7119 84.6445 9.88185 83.0858 8.94185C81.5271 8.00185 80.6978 9.20185 78.8493 8.47185C77.3906 7.89185 76.5912 6.63185 75.3023 4.63185C73.8235 2.32185 73.5737 0.94188 73.0141 1.00188C72.4546 1.06188 72.3347 2.13188 71.0158 5.84188C70.4163 7.44188 70.2265 7.84185 69.8468 7.94185C68.498 8.28185 67.1391 4.38185 65.8502 4.63185C64.7311 4.84185 65.2906 7.91185 63.3623 12.1319C62.5158 14.0366 61.2763 15.7405 59.7253 17.1319C58.4264 18.2719 56.7278 19.7719 55.3389 19.2919C54.3397 18.9219 54.2498 17.7219 52.4713 13.6219C51.0225 10.2719 50.5628 9.93187 50.1432 9.87187C48.5845 9.63187 47.7452 13.0119 45.597 13.0919C43.7286 13.1619 43.1591 10.6319 41.7203 10.6219C38.3531 10.6219 36.4246 24.3319 33.8268 24.2119C32.2181 24.1319 32.378 18.8419 28.2714 16.6619C26.5029 15.7219 26.0233 16.4719 24.1049 15.4319C20.438 13.4319 20.1782 9.64185 18.3997 9.72185C16.6212 9.80185 16.4014 13.1319 14.4031 13.3119C12.7045 13.4619 11.8751 11.1719 10.7261 11.4319C8.6378 11.9019 9.02752 20.1618 8.14826 20.2218C7.26899 20.2818 7.08906 10.1519 1.82345 7.81188C1.31764 7.58994 0.782662 7.44176 0.234806 7.37187" stroke="#EF4949" stroke-miterlimit="10"/>
<defs>
<linearGradient id="paint0_linear_99_9054" x1="63.1174" y1="1" x2="63.1174" y2="42.4519" gradientUnits="userSpaceOnUse">
<stop stop-color="#FF4949"/>
<stop offset="0.951751" stop-color="#EF4949" stop-opacity="0"/>
</linearGradient>
</defs>
</svg>
