<svg width="32" height="33" viewBox="0 0 32 33" fill="none" xmlns="http://www.w3.org/2000/svg">
<path d="M28.6868 15.0721L20.7581 12.1971L17.8743 4.2596C17.7323 3.87684 17.4765 3.54674 17.1413 3.31363C16.8061 3.08051 16.4076 2.95557 15.9993 2.95557C15.5911 2.95557 15.1926 3.08051 14.8574 3.31363C14.5222 3.54674 14.2664 3.87684 14.1243 4.2596L11.2493 12.1883L3.31184 15.0721C2.92909 15.2142 2.59898 15.47 2.36587 15.8052C2.13276 16.1403 2.00781 16.5388 2.00781 16.9471C2.00781 17.3554 2.13276 17.7539 2.36587 18.089C2.59898 18.4242 2.92909 18.68 3.31184 18.8221L11.2406 21.6971L14.1243 29.6346C14.2664 30.0173 14.5222 30.3475 14.8574 30.5806C15.1926 30.8137 15.5911 30.9386 15.9993 30.9386C16.4076 30.9386 16.8061 30.8137 17.1413 30.5806C17.4765 30.3475 17.7323 30.0173 17.8743 29.6346L20.7581 21.7046L28.6868 18.8221C29.0696 18.68 29.3997 18.4242 29.6328 18.089C29.8659 17.7539 29.9909 17.3554 29.9909 16.9471C29.9909 16.5388 29.8659 16.1403 29.6328 15.8052C29.3997 15.47 29.0696 15.2142 28.6868 15.0721ZM20.0706 19.8221C19.797 19.922 19.5485 20.0805 19.3425 20.2865C19.1365 20.4925 18.978 20.741 18.8781 21.0146L15.9993 28.9346L13.1243 21.0183C13.0245 20.7437 12.8656 20.4942 12.6589 20.2875C12.4523 20.0808 12.2028 19.922 11.9281 19.8221L4.01184 16.9471L11.9281 14.0721C12.2028 13.9722 12.4523 13.8134 12.6589 13.6067C12.8656 13.4 13.0245 13.1505 13.1243 12.8758L15.9993 4.9596L18.8743 12.8758C18.9743 13.1495 19.1328 13.398 19.3388 13.6039C19.5447 13.8099 19.7932 13.9684 20.0668 14.0683L27.9831 16.9433L20.0706 19.8221Z" fill="#101012"/>
</svg>
