<?xml version="1.0" encoding="utf-8"?>
<!-- Generator: Adobe Illustrator 24.3.0, SVG Export Plug-In . SVG Version: 6.00 Build 0)  -->
<svg version="1.1" id="Layer_1" xmlns="http://www.w3.org/2000/svg" xmlns:xlink="http://www.w3.org/1999/xlink" x="0px" y="0px"
	 viewBox="0 0 150 150" style="enable-background:new 0 0 150 150;" xml:space="preserve">
<style type="text/css">
	.st0{fill:#fff;}
</style>
<g>
	<path class="st0" d="M1.2,73.7c0.1-0.2,0.2-0.5,0.3-0.7c1-3.2,3.6-5.3,6.9-5.4c4.3-0.1,8.5-0.1,12.8,0c4,0.1,7.1,3.4,7.1,7.4
		c0,4-3,7.4-7,7.5c-4.3,0.1-8.6,0.1-12.9,0c-3.3-0.1-5.9-2.3-6.9-5.4c-0.1-0.3-0.2-0.5-0.3-0.8C1.2,75.5,1.2,74.6,1.2,73.7z"/>
	<path class="st0" d="M76.3,1.2C78.8,2,81,3.3,81.9,6c0.5,1.5,0.6,3.1,0.6,4.7c0.1,3.4,0,6.9,0,10.3c0,4.1-3.2,7.3-7.3,7.4
		c-4.1,0.1-7.5-3-7.7-7.1c-0.1-4.3-0.1-8.5,0-12.8c0.1-3.3,2.2-5.9,5.3-6.9c0.3-0.1,0.5-0.2,0.7-0.3C74.5,1.2,75.4,1.2,76.3,1.2z"/>
	<path class="st0" d="M75,112.7c-20.9,0-37.6-16.8-37.6-37.8c0-20.8,16.9-37.5,37.8-37.5c20.7,0,37.5,16.9,37.4,37.9
		C112.6,95.9,95.7,112.7,75,112.7z M75.1,52.5C62.8,52.3,52.6,62.4,52.4,75c-0.2,12.3,9.9,22.5,22.4,22.7
		c12.4,0.2,22.7-9.9,22.8-22.5C97.8,62.8,87.7,52.7,75.1,52.5z"/>
	<path class="st0" d="M20.5,121.8c0-1.7,0.5-3.3,1.7-4.5c3.2-3.2,6.3-6.4,9.6-9.6c2.9-2.7,7.3-2.5,10.1,0.4
		c2.9,2.9,3.1,7.3,0.4,10.1c-3,3.1-6,6.2-9.2,9.1c-2.2,2-4.8,3.1-7.9,1.7C22.2,127.6,20.8,125.1,20.5,121.8z"/>
	<path class="st0" d="M44.2,36.8c-0.1,3.2-1.6,5.5-4.5,6.8c-2.9,1.3-5.8,0.8-8.1-1.3c-3.1-2.9-6.1-5.9-9-9
		c-2.9-3.1-2.7-7.8,0.4-10.7c2.9-2.7,7.6-2.6,10.5,0.3c2.8,2.8,5.5,5.5,8.3,8.3C43.3,32.8,44.2,34.6,44.2,36.8z"/>
	<path class="st0" d="M129.4,27.6c0,2.6-0.7,4.4-2.1,5.8c-2.8,2.9-5.7,5.7-8.6,8.6c-3,3-7.6,3.1-10.5,0.3c-3.1-3-3.4-7.4-0.5-10.6
		c2.9-3.2,6-6.2,9.2-9.1c2.4-2.2,5.2-2.4,8.1-1.1C128,22.7,129.3,25.1,129.4,27.6z"/>
	<path class="st0" d="M105.8,112.8c0.1-2.6,1.6-5,4.5-6.3c2.9-1.3,5.7-0.9,8,1.3c3.1,3,6.2,6,9.1,9.2c3,3.2,2.4,7.6-0.2,10.3
		c-2.5,2.5-7.1,3.4-10.2,0.3c-3.1-3.1-6.3-6.3-9.4-9.4C106.3,116.8,105.8,115.3,105.8,112.8z"/>
	<path class="st0" d="M67.5,135.3c0-2,0-4.1,0-6.1c0.1-4.2,3.3-7.3,7.5-7.3c4.2,0,7.4,3.1,7.5,7.3c0.1,4.1,0.1,8.2,0,12.4
		c-0.1,4.2-3.4,7.4-7.5,7.4c-4.1,0-7.3-3.2-7.4-7.4C67.5,139.4,67.5,137.3,67.5,135.3z"/>
	<path class="st0" d="M135.3,67.6c2,0,3.9,0,5.9,0c4.2,0,7.5,3.1,7.6,7.2c0.1,4.1-2.8,7.5-7.1,7.7c-4.3,0.2-8.6,0.2-12.9,0
		c-4.4-0.2-7.2-3.6-7-8c0.2-4,3.4-6.9,7.6-6.9C131.3,67.6,133.3,67.6,135.3,67.6z"/>
</g>
</svg>
